{
    "asset": {
        "version": "2.0",
        "generator": "Panda VegetationLab"
    },
    "scene": 0,
    "scenes": [
        {
            "nodes": [
                0
            ]
        }
    ],
    "nodes": [
        {
            "mesh": 0,
            "name": "grass3_0"
        }
    ],
    "materials": [
        {
            "name": "grass",
            "doubleSided": true,
            "alphaMode": "MASK",
            "alphaCutoff": 0.4972420632839203,
            "pbrMetallicRoughness": {
                "baseColorTexture": {
                    "index": 0
                },
                "baseColorFactor": [
                    1.0,
                    1.0,
                    1.0,
                    1.0
                ],
                "metallicFactor": 0.0,
                "roughnessFactor": 1.0
            }
        }
    ],
    "textures": [
        {
            "source": 0
        }
    ],
    "images": [
        {
            "uri": "grass3_grass.png"
        }
    ],
    "meshes": [
        {
            "name": "grass3_0",
            "primitives": [
                {
                    "attributes": {
                        "POSITION": 0,
                        "NORMAL": 1,
                        "TEXCOORD_0": 2,
                        "COLOR_0": 3,
                        "COLOR_1": 4
                    },
                    "indices": 5,
                    "material": 0
                }
            ]
        }
    ],
    "buffers": [
        {
            "uri": "grass3_0.bin",
            "byteLength": 840
        }
    ],
    "bufferViews": [
        {
            "buffer": 0,
            "byteOffset": 0,
            "byteLength": 144,
            "target": 34962
        },
        {
            "buffer": 0,
            "byteOffset": 144,
            "byteLength": 144,
            "target": 34962
        },
        {
            "buffer": 0,
            "byteOffset": 288,
            "byteLength": 96,
            "target": 34962
        },
        {
            "buffer": 0,
            "byteOffset": 384,
            "byteLength": 192,
            "target": 34962
        },
        {
            "buffer": 0,
            "byteOffset": 576,
            "byteLength": 192,
            "target": 34962
        },
        {
            "buffer": 0,
            "byteOffset": 768,
            "byteLength": 72,
            "target": 34963
        }
    ],
    "accessors": [
        {
            "bufferView": 0,
            "componentType": 5126,
            "count": 12,
            "type": "VEC3",
            "min": [
                -0.767541229724884,
                -5.587935447692871e-9,
                -0.6874131560325623
            ],
            "max": [
                0.746089518070221,
                0.7166847586631775,
                0.7451887130737305
            ]
        },
        {
            "bufferView": 1,
            "componentType": 5126,
            "count": 12,
            "type": "VEC3",
            "min": [
                0.0,
                1.0,
                0.0
            ],
            "max": [
                0.0,
                1.0,
                0.0
            ]
        },
        {
            "bufferView": 2,
            "componentType": 5126,
            "count": 12,
            "type": "VEC2",
            "min": [
                0.0,
                0.0
            ],
            "max": [
                1.0,
                1.0
            ]
        },
        {
            "bufferView": 3,
            "componentType": 5126,
            "count": 12,
            "type": "VEC4",
            "min": [
                0.5638281106948853,
                0.5638281106948853,
                0.5638281106948853,
                0.0
            ],
            "max": [
                1.0,
                1.0,
                1.0,
                1.0
            ]
        },
        {
            "bufferView": 4,
            "componentType": 5126,
            "count": 12,
            "type": "VEC4",
            "min": [
                1.0,
                1.0,
                1.0,
                1.0
            ],
            "max": [
                1.0,
                1.0,
                1.0,
                1.0
            ]
        },
        {
            "bufferView": 5,
            "componentType": 5125,
            "count": 18,
            "type": "SCALAR",
            "min": [
                0.0
            ],
            "max": [
                11.0
            ]
        }
    ]
}