{
    "asset": {
        "version": "2.0",
        "generator": "Panda VegetationLab"
    },
    "scene": 0,
    "scenes": [
        {
            "nodes": [
                0
            ]
        }
    ],
    "nodes": [
        {
            "mesh": 0,
            "name": "grass1_0"
        }
    ],
    "materials": [
        {
            "name": "grass",
            "doubleSided": true,
            "alphaMode": "MASK",
            "alphaCutoff": 0.4972420632839203,
            "pbrMetallicRoughness": {
                "baseColorTexture": {
                    "index": 0
                },
                "baseColorFactor": [
                    1.0,
                    1.0,
                    1.0,
                    1.0
                ],
                "metallicFactor": 0.0,
                "roughnessFactor": 1.0
            }
        }
    ],
    "textures": [
        {
            "source": 0
        }
    ],
    "images": [
        {
            "uri": "grass1_grass.png"
        }
    ],
    "meshes": [
        {
            "name": "grass1_0",
            "primitives": [
                {
                    "attributes": {
                        "POSITION": 0,
                        "NORMAL": 1,
                        "TEXCOORD_0": 2,
                        "COLOR_0": 3,
                        "COLOR_1": 4
                    },
                    "indices": 5,
                    "material": 0
                }
            ]
        }
    ],
    "buffers": [
        {
            "uri": "grass1_0.bin",
            "byteLength": 1120
        }
    ],
    "bufferViews": [
        {
            "buffer": 0,
            "byteOffset": 0,
            "byteLength": 192,
            "target": 34962
        },
        {
            "buffer": 0,
            "byteOffset": 192,
            "byteLength": 192,
            "target": 34962
        },
        {
            "buffer": 0,
            "byteOffset": 384,
            "byteLength": 128,
            "target": 34962
        },
        {
            "buffer": 0,
            "byteOffset": 512,
            "byteLength": 256,
            "target": 34962
        },
        {
            "buffer": 0,
            "byteOffset": 768,
            "byteLength": 256,
            "target": 34962
        },
        {
            "buffer": 0,
            "byteOffset": 1024,
            "byteLength": 96,
            "target": 34963
        }
    ],
    "accessors": [
        {
            "bufferView": 0,
            "componentType": 5126,
            "count": 16,
            "type": "VEC3",
            "min": [
                -0.7656615376472473,
                -1.1175870895385742e-8,
                -0.7609959840774536
            ],
            "max": [
                0.7477995157241821,
                0.4115520119667053,
                0.7473474144935608
            ]
        },
        {
            "bufferView": 1,
            "componentType": 5126,
            "count": 16,
            "type": "VEC3",
            "min": [
                0.0,
                1.0,
                0.0
            ],
            "max": [
                0.0,
                1.0,
                0.0
            ]
        },
        {
            "bufferView": 2,
            "componentType": 5126,
            "count": 16,
            "type": "VEC2",
            "min": [
                0.0,
                0.0
            ],
            "max": [
                1.0,
                1.0
            ]
        },
        {
            "bufferView": 3,
            "componentType": 5126,
            "count": 16,
            "type": "VEC4",
            "min": [
                0.20000000298023224,
                0.2800000011920929,
                0.10000000149011612,
                0.0
            ],
            "max": [
                0.44999998807907104,
                0.550000011920929,
                0.2199999988079071,
                1.0
            ]
        },
        {
            "bufferView": 4,
            "componentType": 5126,
            "count": 16,
            "type": "VEC4",
            "min": [
                1.0,
                1.0,
                1.0,
                1.0
            ],
            "max": [
                1.0,
                1.0,
                1.0,
                1.0
            ]
        },
        {
            "bufferView": 5,
            "componentType": 5125,
            "count": 24,
            "type": "SCALAR",
            "min": [
                0.0
            ],
            "max": [
                15.0
            ]
        }
    ]
}