{
    "asset": {
        "version": "2.0",
        "generator": "Panda VegetationLab"
    },
    "scene": 0,
    "scenes": [
        {
            "nodes": [
                0
            ]
        }
    ],
    "nodes": [
        {
            "mesh": 0,
            "name": "birch_tree_1"
        }
    ],
    "materials": [
        {
            "name": "bark",
            "doubleSided": false,
            "pbrMetallicRoughness": {
                "baseColorTexture": {
                    "index": 0
                },
                "baseColorFactor": [
                    1.0,
                    1.0,
                    1.0,
                    1.0
                ],
                "metallicFactor": 0.0,
                "roughnessFactor": 0.1322242021560669
            }
        },
        {
            "name": "crown",
            "doubleSided": true,
            "alphaMode": "MASK",
            "alphaCutoff": 0.5,
            "pbrMetallicRoughness": {
                "baseColorTexture": {
                    "index": 1
                },
                "baseColorFactor": [
                    1.0,
                    1.0,
                    1.0,
                    1.0
                ],
                "metallicFactor": 0.0,
                "roughnessFactor": 0.18267719447612762
            }
        }
    ],
    "textures": [
        {
            "source": 0
        },
        {
            "source": 1
        }
    ],
    "images": [
        {
            "uri": "birch_tree_bark.png"
        },
        {
            "uri": "birch_tree_crown.png"
        }
    ],
    "meshes": [
        {
            "name": "birch_tree_1",
            "primitives": [
                {
                    "attributes": {
                        "POSITION": 0,
                        "NORMAL": 1,
                        "TEXCOORD_0": 2,
                        "COLOR_0": 3,
                        "COLOR_1": 4
                    },
                    "indices": 5,
                    "material": 0
                },
                {
                    "attributes": {
                        "POSITION": 6,
                        "NORMAL": 7,
                        "TEXCOORD_0": 8,
                        "COLOR_0": 9,
                        "COLOR_1": 10
                    },
                    "indices": 11,
                    "material": 1
                }
            ]
        }
    ],
    "buffers": [
        {
            "uri": "birch_tree_1.bin",
            "byteLength": 233824
        }
    ],
    "bufferViews": [
        {
            "buffer": 0,
            "byteOffset": 0,
            "byteLength": 21636,
            "target": 34962
        },
        {
            "buffer": 0,
            "byteOffset": 21636,
            "byteLength": 21636,
            "target": 34962
        },
        {
            "buffer": 0,
            "byteOffset": 43272,
            "byteLength": 14424,
            "target": 34962
        },
        {
            "buffer": 0,
            "byteOffset": 57696,
            "byteLength": 28848,
            "target": 34962
        },
        {
            "buffer": 0,
            "byteOffset": 86544,
            "byteLength": 28848,
            "target": 34962
        },
        {
            "buffer": 0,
            "byteOffset": 115392,
            "byteLength": 31632,
            "target": 34963
        },
        {
            "buffer": 0,
            "byteOffset": 147024,
            "byteLength": 14880,
            "target": 34962
        },
        {
            "buffer": 0,
            "byteOffset": 161904,
            "byteLength": 14880,
            "target": 34962
        },
        {
            "buffer": 0,
            "byteOffset": 176784,
            "byteLength": 9920,
            "target": 34962
        },
        {
            "buffer": 0,
            "byteOffset": 186704,
            "byteLength": 19840,
            "target": 34962
        },
        {
            "buffer": 0,
            "byteOffset": 206544,
            "byteLength": 19840,
            "target": 34962
        },
        {
            "buffer": 0,
            "byteOffset": 226384,
            "byteLength": 7440,
            "target": 34963
        }
    ],
    "accessors": [
        {
            "bufferView": 0,
            "componentType": 5126,
            "count": 1803,
            "type": "VEC3",
            "min": [
                -1.9739181995391846,
                0.0,
                -1.2001349925994873
            ],
            "max": [
                0.9828516244888306,
                9.130301475524902,
                1.4895802736282349
            ]
        },
        {
            "bufferView": 1,
            "componentType": 5126,
            "count": 1803,
            "type": "VEC3",
            "min": [
                -1.0,
                -0.999046266078949,
                -0.9980695247650146
            ],
            "max": [
                1.0,
                0.9990462064743042,
                0.9980695247650146
            ]
        },
        {
            "bufferView": 2,
            "componentType": 5126,
            "count": 1803,
            "type": "VEC2",
            "min": [
                0.0,
                0.0
            ],
            "max": [
                1.0,
                6.707028388977051
            ]
        },
        {
            "bufferView": 3,
            "componentType": 5126,
            "count": 1803,
            "type": "VEC4",
            "min": [
                1.0,
                1.0,
                1.0,
                0.0
            ],
            "max": [
                1.0,
                1.0,
                1.0,
                0.8390421867370605
            ]
        },
        {
            "bufferView": 4,
            "componentType": 5126,
            "count": 1803,
            "type": "VEC4",
            "min": [
                1.0,
                1.0,
                1.0,
                1.0
            ],
            "max": [
                1.0,
                1.0,
                1.0,
                1.0
            ]
        },
        {
            "bufferView": 5,
            "componentType": 5125,
            "count": 7908,
            "type": "SCALAR",
            "min": [
                0.0
            ],
            "max": [
                1802.0
            ]
        },
        {
            "bufferView": 6,
            "componentType": 5126,
            "count": 1240,
            "type": "VEC3",
            "min": [
                -2.609295606613159,
                1.5767748355865479,
                -1.491528034210205
            ],
            "max": [
                1.2725536823272705,
                9.158153533935547,
                2.393272876739502
            ]
        },
        {
            "bufferView": 7,
            "componentType": 5126,
            "count": 1240,
            "type": "VEC3",
            "min": [
                -0.9999801516532898,
                -0.655311644077301,
                -0.998268187046051
            ],
            "max": [
                0.9992142915725708,
                0.9966272711753845,
                0.9991781711578369
            ]
        },
        {
            "bufferView": 8,
            "componentType": 5126,
            "count": 1240,
            "type": "VEC2",
            "min": [
                0.0,
                0.0
            ],
            "max": [
                1.0,
                1.0
            ]
        },
        {
            "bufferView": 9,
            "componentType": 5126,
            "count": 1240,
            "type": "VEC4",
            "min": [
                0.40339982509613037,
                0.47889888286590576,
                0.09377001225948334,
                0.40372127294540405
            ],
            "max": [
                0.4061816334724426,
                0.5141666531562805,
                0.12415317445993423,
                1.0
            ]
        },
        {
            "bufferView": 10,
            "componentType": 5126,
            "count": 1240,
            "type": "VEC4",
            "min": [
                0.41818052530288696,
                0.41818052530288696,
                0.41818052530288696,
                1.0
            ],
            "max": [
                1.0,
                1.0,
                1.0,
                1.0
            ]
        },
        {
            "bufferView": 11,
            "componentType": 5125,
            "count": 1860,
            "type": "SCALAR",
            "min": [
                0.0
            ],
            "max": [
                1239.0
            ]
        }
    ]
}