{
    "asset": {
        "version": "2.0",
        "generator": "Panda VegetationLab"
    },
    "scene": 0,
    "scenes": [
        {
            "nodes": [
                0
            ]
        }
    ],
    "nodes": [
        {
            "mesh": 0,
            "name": "birch_tree_1_lod2"
        }
    ],
    "materials": [
        {
            "name": "bark",
            "doubleSided": false,
            "pbrMetallicRoughness": {
                "baseColorTexture": {
                    "index": 0
                },
                "baseColorFactor": [
                    1.0,
                    1.0,
                    1.0,
                    1.0
                ],
                "metallicFactor": 0.0,
                "roughnessFactor": 1.0
            }
        },
        {
            "name": "leaves",
            "doubleSided": true,
            "alphaMode": "MASK",
            "alphaCutoff": 0.5026896595954895,
            "pbrMetallicRoughness": {
                "baseColorTexture": {
                    "index": 1
                },
                "baseColorFactor": [
                    1.0,
                    1.0,
                    1.0,
                    1.0
                ],
                "metallicFactor": 0.0,
                "roughnessFactor": 0.6949359774589539
            }
        }
    ],
    "textures": [
        {
            "source": 0
        },
        {
            "source": 1
        }
    ],
    "images": [
        {
            "uri": "birch_tree_bark.png"
        },
        {
            "uri": "birch_tree_leaf.png"
        }
    ],
    "meshes": [
        {
            "name": "birch_tree_1_lod2",
            "primitives": [
                {
                    "attributes": {
                        "POSITION": 0,
                        "NORMAL": 1,
                        "TEXCOORD_0": 2,
                        "COLOR_0": 3,
                        "COLOR_1": 4
                    },
                    "indices": 5,
                    "material": 0
                },
                {
                    "attributes": {
                        "POSITION": 6,
                        "NORMAL": 7,
                        "TEXCOORD_0": 8,
                        "COLOR_0": 9,
                        "COLOR_1": 10
                    },
                    "indices": 11,
                    "material": 1
                }
            ]
        }
    ],
    "buffers": [
        {
            "uri": "birch_tree_1_lod2.bin",
            "byteLength": 190304
        }
    ],
    "bufferViews": [
        {
            "buffer": 0,
            "byteOffset": 0,
            "byteLength": 16944,
            "target": 34962
        },
        {
            "buffer": 0,
            "byteOffset": 16944,
            "byteLength": 16944,
            "target": 34962
        },
        {
            "buffer": 0,
            "byteOffset": 33888,
            "byteLength": 11296,
            "target": 34962
        },
        {
            "buffer": 0,
            "byteOffset": 45184,
            "byteLength": 22592,
            "target": 34962
        },
        {
            "buffer": 0,
            "byteOffset": 67776,
            "byteLength": 22592,
            "target": 34962
        },
        {
            "buffer": 0,
            "byteOffset": 90368,
            "byteLength": 19296,
            "target": 34963
        },
        {
            "buffer": 0,
            "byteOffset": 109664,
            "byteLength": 13824,
            "target": 34962
        },
        {
            "buffer": 0,
            "byteOffset": 123488,
            "byteLength": 13824,
            "target": 34962
        },
        {
            "buffer": 0,
            "byteOffset": 137312,
            "byteLength": 9216,
            "target": 34962
        },
        {
            "buffer": 0,
            "byteOffset": 146528,
            "byteLength": 18432,
            "target": 34962
        },
        {
            "buffer": 0,
            "byteOffset": 164960,
            "byteLength": 18432,
            "target": 34962
        },
        {
            "buffer": 0,
            "byteOffset": 183392,
            "byteLength": 6912,
            "target": 34963
        }
    ],
    "accessors": [
        {
            "bufferView": 0,
            "componentType": 5126,
            "count": 1412,
            "type": "VEC3",
            "min": [
                -1.397297978401184,
                0.0,
                -1.3789931535720825
            ],
            "max": [
                0.7746868133544922,
                8.271822929382324,
                1.2242707014083862
            ]
        },
        {
            "bufferView": 1,
            "componentType": 5126,
            "count": 1412,
            "type": "VEC3",
            "min": [
                -0.9992146492004395,
                -0.9997166395187378,
                -0.9998128414154053
            ],
            "max": [
                1.0,
                0.9922386407852173,
                0.9977632164955139
            ]
        },
        {
            "bufferView": 2,
            "componentType": 5126,
            "count": 1412,
            "type": "VEC2",
            "min": [
                0.0,
                0.0
            ],
            "max": [
                1.0,
                6.718222618103027
            ]
        },
        {
            "bufferView": 3,
            "componentType": 5126,
            "count": 1412,
            "type": "VEC4",
            "min": [
                1.0,
                1.0,
                1.0,
                0.0
            ],
            "max": [
                1.0,
                1.0,
                1.0,
                0.9966777563095093
            ]
        },
        {
            "bufferView": 4,
            "componentType": 5126,
            "count": 1412,
            "type": "VEC4",
            "min": [
                1.0,
                1.0,
                1.0,
                1.0
            ],
            "max": [
                1.0,
                1.0,
                1.0,
                1.0
            ]
        },
        {
            "bufferView": 5,
            "componentType": 5125,
            "count": 4824,
            "type": "SCALAR",
            "min": [
                0.0
            ],
            "max": [
                1411.0
            ]
        },
        {
            "bufferView": 6,
            "componentType": 5126,
            "count": 1152,
            "type": "VEC3",
            "min": [
                -1.8571137189865112,
                1.9017407894134521,
                -1.9101576805114746
            ],
            "max": [
                1.1681632995605469,
                8.802983283996582,
                1.7657783031463623
            ]
        },
        {
            "bufferView": 7,
            "componentType": 5126,
            "count": 1152,
            "type": "VEC3",
            "min": [
                -0.999620258808136,
                -0.9979008436203003,
                -0.9999533295631409
            ],
            "max": [
                0.986149787902832,
                0.9945505857467651,
                0.9672346711158752
            ]
        },
        {
            "bufferView": 8,
            "componentType": 5126,
            "count": 1152,
            "type": "VEC2",
            "min": [
                0.0,
                0.0
            ],
            "max": [
                1.0,
                1.0
            ]
        },
        {
            "bufferView": 9,
            "componentType": 5126,
            "count": 1152,
            "type": "VEC4",
            "min": [
                1.0,
                1.0,
                1.0,
                0.34930968284606934
            ],
            "max": [
                1.0,
                1.0,
                1.0,
                1.0
            ]
        },
        {
            "bufferView": 10,
            "componentType": 5126,
            "count": 1152,
            "type": "VEC4",
            "min": [
                0.2504235804080963,
                0.2504235804080963,
                0.2504235804080963,
                1.0
            ],
            "max": [
                1.0,
                1.0,
                1.0,
                1.0
            ]
        },
        {
            "bufferView": 11,
            "componentType": 5125,
            "count": 1728,
            "type": "SCALAR",
            "min": [
                0.0
            ],
            "max": [
                1151.0
            ]
        }
    ]
}