{
    "asset": {
        "version": "2.0",
        "generator": "Panda VegetationLab"
    },
    "scene": 0,
    "scenes": [
        {
            "nodes": [
                0
            ]
        }
    ],
    "nodes": [
        {
            "mesh": 0,
            "name": "birch_tree_0"
        }
    ],
    "materials": [
        {
            "name": "bark",
            "doubleSided": false,
            "pbrMetallicRoughness": {
                "baseColorTexture": {
                    "index": 0
                },
                "baseColorFactor": [
                    1.0,
                    1.0,
                    1.0,
                    1.0
                ],
                "metallicFactor": 0.0,
                "roughnessFactor": 0.8999999761581421
            }
        },
        {
            "name": "crown",
            "doubleSided": true,
            "alphaMode": "MASK",
            "alphaCutoff": 0.5,
            "normalTexture": {
                "index": 2,
                "scale": 1.0
            },
            "pbrMetallicRoughness": {
                "baseColorTexture": {
                    "index": 1
                },
                "baseColorFactor": [
                    1.0,
                    1.0,
                    1.0,
                    1.0
                ],
                "metallicFactor": 0.0,
                "roughnessFactor": 0.25
            }
        }
    ],
    "textures": [
        {
            "source": 0
        },
        {
            "source": 1
        },
        {
            "source": 2
        }
    ],
    "images": [
        {
            "uri": "birch_tree_bark.png"
        },
        {
            "uri": "birch_tree_crown.png"
        },
        {
            "uri": "birch_tree_crown_normal.png"
        }
    ],
    "meshes": [
        {
            "name": "birch_tree_0",
            "primitives": [
                {
                    "attributes": {
                        "POSITION": 0,
                        "NORMAL": 1,
                        "TEXCOORD_0": 2,
                        "COLOR_0": 3,
                        "COLOR_1": 4
                    },
                    "indices": 5,
                    "material": 0
                },
                {
                    "attributes": {
                        "POSITION": 6,
                        "NORMAL": 7,
                        "TEXCOORD_0": 8,
                        "COLOR_0": 9,
                        "COLOR_1": 10
                    },
                    "indices": 11,
                    "material": 1
                }
            ]
        }
    ],
    "buffers": [
        {
            "uri": "birch_tree_0.bin",
            "byteLength": 2415688
        }
    ],
    "bufferViews": [
        {
            "buffer": 0,
            "byteOffset": 0,
            "byteLength": 153900,
            "target": 34962
        },
        {
            "buffer": 0,
            "byteOffset": 153900,
            "byteLength": 153900,
            "target": 34962
        },
        {
            "buffer": 0,
            "byteOffset": 307800,
            "byteLength": 102600,
            "target": 34962
        },
        {
            "buffer": 0,
            "byteOffset": 410400,
            "byteLength": 205200,
            "target": 34962
        },
        {
            "buffer": 0,
            "byteOffset": 615600,
            "byteLength": 205200,
            "target": 34962
        },
        {
            "buffer": 0,
            "byteOffset": 820800,
            "byteLength": 222888,
            "target": 34963
        },
        {
            "buffer": 0,
            "byteOffset": 1043688,
            "byteLength": 235200,
            "target": 34962
        },
        {
            "buffer": 0,
            "byteOffset": 1278888,
            "byteLength": 235200,
            "target": 34962
        },
        {
            "buffer": 0,
            "byteOffset": 1514088,
            "byteLength": 156800,
            "target": 34962
        },
        {
            "buffer": 0,
            "byteOffset": 1670888,
            "byteLength": 313600,
            "target": 34962
        },
        {
            "buffer": 0,
            "byteOffset": 1984488,
            "byteLength": 313600,
            "target": 34962
        },
        {
            "buffer": 0,
            "byteOffset": 2298088,
            "byteLength": 117600,
            "target": 34963
        }
    ],
    "accessors": [
        {
            "bufferView": 0,
            "componentType": 5126,
            "count": 12825,
            "type": "VEC3",
            "min": [
                -3.226257801055908,
                -0.02019950933754444,
                -3.7165157794952393
            ],
            "max": [
                3.1569390296936035,
                13.792291641235352,
                3.5317728519439697
            ]
        },
        {
            "bufferView": 1,
            "componentType": 5126,
            "count": 12825,
            "type": "VEC3",
            "min": [
                -0.9999083876609802,
                -0.9999772310256958,
                -0.9999995827674866
            ],
            "max": [
                0.9999845623970032,
                0.9999772310256958,
                0.9999982118606567
            ]
        },
        {
            "bufferView": 2,
            "componentType": 5126,
            "count": 12825,
            "type": "VEC2",
            "min": [
                0.0,
                0.798373818397522
            ],
            "max": [
                1.0,
                7.947042942047119
            ]
        },
        {
            "bufferView": 3,
            "componentType": 5126,
            "count": 12825,
            "type": "VEC4",
            "min": [
                1.0,
                1.0,
                1.0,
                0.0
            ],
            "max": [
                1.0,
                1.0,
                1.0,
                0.8888341784477234
            ]
        },
        {
            "bufferView": 4,
            "componentType": 5126,
            "count": 12825,
            "type": "VEC4",
            "min": [
                1.0,
                0.0,
                0.0,
                1.0
            ],
            "max": [
                1.0,
                0.0,
                0.0,
                1.0
            ]
        },
        {
            "bufferView": 5,
            "componentType": 5125,
            "count": 55722,
            "type": "SCALAR",
            "min": [
                0.0
            ],
            "max": [
                12824.0
            ]
        },
        {
            "bufferView": 6,
            "componentType": 5126,
            "count": 19600,
            "type": "VEC3",
            "min": [
                -4.095490455627441,
                3.6946873664855957,
                -4.681243896484375
            ],
            "max": [
                3.9803125858306885,
                14.666836738586426,
                4.2525458335876465
            ]
        },
        {
            "bufferView": 7,
            "componentType": 5126,
            "count": 19600,
            "type": "VEC3",
            "min": [
                -0.9993687272071838,
                -0.22901348769664764,
                -0.9996873140335083
            ],
            "max": [
                0.999861478805542,
                0.9999802112579346,
                0.999267041683197
            ]
        },
        {
            "bufferView": 8,
            "componentType": 5126,
            "count": 19600,
            "type": "VEC2",
            "min": [
                0.0,
                0.0
            ],
            "max": [
                1.0,
                1.0
            ]
        },
        {
            "bufferView": 9,
            "componentType": 5126,
            "count": 19600,
            "type": "VEC4",
            "min": [
                1.0,
                1.0,
                1.0,
                0.49482500553131104
            ],
            "max": [
                1.0,
                1.0,
                1.0,
                1.0
            ]
        },
        {
            "bufferView": 10,
            "componentType": 5126,
            "count": 19600,
            "type": "VEC4",
            "min": [
                0.85008305311203,
                0.0,
                0.0,
                1.0
            ],
            "max": [
                1.0,
                1.0,
                0.03529411926865578,
                1.0
            ]
        },
        {
            "bufferView": 11,
            "componentType": 5125,
            "count": 29400,
            "type": "SCALAR",
            "min": [
                0.0
            ],
            "max": [
                19599.0
            ]
        }
    ]
}