{
    "asset": {
        "version": "2.0",
        "generator": "Panda VegetationLab"
    },
    "scene": 0,
    "scenes": [
        {
            "nodes": [
                0
            ]
        }
    ],
    "nodes": [
        {
            "mesh": 0,
            "name": "birch_tree_3_lod1"
        }
    ],
    "materials": [
        {
            "name": "bark",
            "doubleSided": false,
            "pbrMetallicRoughness": {
                "baseColorTexture": {
                    "index": 0
                },
                "baseColorFactor": [
                    1.0,
                    1.0,
                    1.0,
                    1.0
                ],
                "metallicFactor": 0.0,
                "roughnessFactor": 0.1322242021560669
            }
        },
        {
            "name": "crown",
            "doubleSided": true,
            "alphaMode": "MASK",
            "alphaCutoff": 0.5,
            "pbrMetallicRoughness": {
                "baseColorTexture": {
                    "index": 1
                },
                "baseColorFactor": [
                    1.0,
                    1.0,
                    1.0,
                    1.0
                ],
                "metallicFactor": 0.0,
                "roughnessFactor": 0.18267719447612762
            }
        }
    ],
    "textures": [
        {
            "source": 0
        },
        {
            "source": 1
        }
    ],
    "images": [
        {
            "uri": "birch_tree_bark.png"
        },
        {
            "uri": "birch_tree_crown.png"
        }
    ],
    "meshes": [
        {
            "name": "birch_tree_3_lod1",
            "primitives": [
                {
                    "attributes": {
                        "POSITION": 0,
                        "NORMAL": 1,
                        "TEXCOORD_0": 2,
                        "COLOR_0": 3,
                        "COLOR_1": 4
                    },
                    "indices": 5,
                    "material": 0
                },
                {
                    "attributes": {
                        "POSITION": 6,
                        "NORMAL": 7,
                        "TEXCOORD_0": 8,
                        "COLOR_0": 9,
                        "COLOR_1": 10
                    },
                    "indices": 11,
                    "material": 1
                }
            ]
        }
    ],
    "buffers": [
        {
            "uri": "birch_tree_3_lod1.bin",
            "byteLength": 325288
        }
    ],
    "bufferViews": [
        {
            "buffer": 0,
            "byteOffset": 0,
            "byteLength": 6528,
            "target": 34962
        },
        {
            "buffer": 0,
            "byteOffset": 6528,
            "byteLength": 6528,
            "target": 34962
        },
        {
            "buffer": 0,
            "byteOffset": 13056,
            "byteLength": 4352,
            "target": 34962
        },
        {
            "buffer": 0,
            "byteOffset": 17408,
            "byteLength": 8704,
            "target": 34962
        },
        {
            "buffer": 0,
            "byteOffset": 26112,
            "byteLength": 8704,
            "target": 34962
        },
        {
            "buffer": 0,
            "byteOffset": 34816,
            "byteLength": 8232,
            "target": 34963
        },
        {
            "buffer": 0,
            "byteOffset": 43048,
            "byteLength": 48384,
            "target": 34962
        },
        {
            "buffer": 0,
            "byteOffset": 91432,
            "byteLength": 48384,
            "target": 34962
        },
        {
            "buffer": 0,
            "byteOffset": 139816,
            "byteLength": 32256,
            "target": 34962
        },
        {
            "buffer": 0,
            "byteOffset": 172072,
            "byteLength": 64512,
            "target": 34962
        },
        {
            "buffer": 0,
            "byteOffset": 236584,
            "byteLength": 64512,
            "target": 34962
        },
        {
            "buffer": 0,
            "byteOffset": 301096,
            "byteLength": 24192,
            "target": 34963
        }
    ],
    "accessors": [
        {
            "bufferView": 0,
            "componentType": 5126,
            "count": 544,
            "type": "VEC3",
            "min": [
                -1.5274428129196167,
                0.0,
                -1.519838809967041
            ],
            "max": [
                1.1249569654464722,
                7.460999011993408,
                1.0252751111984253
            ]
        },
        {
            "bufferView": 1,
            "componentType": 5126,
            "count": 544,
            "type": "VEC3",
            "min": [
                -1.0,
                -0.9987916350364685,
                -1.0
            ],
            "max": [
                1.0,
                0.9961206316947937,
                1.0
            ]
        },
        {
            "bufferView": 2,
            "componentType": 5126,
            "count": 544,
            "type": "VEC2",
            "min": [
                0.0,
                0.0
            ],
            "max": [
                1.0,
                5.75665807723999
            ]
        },
        {
            "bufferView": 3,
            "componentType": 5126,
            "count": 544,
            "type": "VEC4",
            "min": [
                1.0,
                1.0,
                1.0,
                0.0
            ],
            "max": [
                1.0,
                1.0,
                1.0,
                0.7976052165031433
            ]
        },
        {
            "bufferView": 4,
            "componentType": 5126,
            "count": 544,
            "type": "VEC4",
            "min": [
                1.0,
                1.0,
                1.0,
                1.0
            ],
            "max": [
                1.0,
                1.0,
                1.0,
                1.0
            ]
        },
        {
            "bufferView": 5,
            "componentType": 5125,
            "count": 2058,
            "type": "SCALAR",
            "min": [
                0.0
            ],
            "max": [
                543.0
            ]
        },
        {
            "bufferView": 6,
            "componentType": 5126,
            "count": 4032,
            "type": "VEC3",
            "min": [
                -2.2663159370422363,
                0.9346767067909241,
                -2.30898118019104
            ],
            "max": [
                1.8758454322814941,
                8.136972427368164,
                1.5593819618225098
            ]
        },
        {
            "bufferView": 7,
            "componentType": 5126,
            "count": 4032,
            "type": "VEC3",
            "min": [
                -0.9999103546142578,
                -0.9989410638809204,
                -0.9978198409080505
            ],
            "max": [
                0.9976235628128052,
                0.9953892230987549,
                0.9984464049339294
            ]
        },
        {
            "bufferView": 8,
            "componentType": 5126,
            "count": 4032,
            "type": "VEC2",
            "min": [
                0.0,
                0.0
            ],
            "max": [
                1.0,
                1.0
            ]
        },
        {
            "bufferView": 9,
            "componentType": 5126,
            "count": 4032,
            "type": "VEC4",
            "min": [
                0.20420490205287933,
                0.4076020419597626,
                0.07299501448869705,
                0.33165350556373596
            ],
            "max": [
                0.2985738515853882,
                0.5301333665847778,
                0.13335132598876953,
                1.0
            ]
        },
        {
            "bufferView": 10,
            "componentType": 5126,
            "count": 4032,
            "type": "VEC4",
            "min": [
                0.20394860208034515,
                0.20394860208034515,
                0.20394860208034515,
                1.0
            ],
            "max": [
                1.0,
                1.0,
                1.0,
                1.0
            ]
        },
        {
            "bufferView": 11,
            "componentType": 5125,
            "count": 6048,
            "type": "SCALAR",
            "min": [
                0.0
            ],
            "max": [
                4031.0
            ]
        }
    ]
}