{
    "asset": {
        "version": "2.0",
        "generator": "Panda VegetationLab"
    },
    "scene": 0,
    "scenes": [
        {
            "nodes": [
                0
            ]
        }
    ],
    "nodes": [
        {
            "mesh": 0,
            "name": "birch_tree_3"
        }
    ],
    "materials": [
        {
            "name": "bark",
            "doubleSided": false,
            "pbrMetallicRoughness": {
                "baseColorTexture": {
                    "index": 0
                },
                "baseColorFactor": [
                    1.0,
                    1.0,
                    1.0,
                    1.0
                ],
                "metallicFactor": 0.0,
                "roughnessFactor": 0.1322242021560669
            }
        },
        {
            "name": "crown",
            "doubleSided": true,
            "alphaMode": "MASK",
            "alphaCutoff": 0.5,
            "pbrMetallicRoughness": {
                "baseColorTexture": {
                    "index": 1
                },
                "baseColorFactor": [
                    1.0,
                    1.0,
                    1.0,
                    1.0
                ],
                "metallicFactor": 0.0,
                "roughnessFactor": 0.18267719447612762
            }
        }
    ],
    "textures": [
        {
            "source": 0
        },
        {
            "source": 1
        }
    ],
    "images": [
        {
            "uri": "birch_tree_bark.png"
        },
        {
            "uri": "birch_tree_crown.png"
        }
    ],
    "meshes": [
        {
            "name": "birch_tree_3",
            "primitives": [
                {
                    "attributes": {
                        "POSITION": 0,
                        "NORMAL": 1,
                        "TEXCOORD_0": 2,
                        "COLOR_0": 3,
                        "COLOR_1": 4
                    },
                    "indices": 5,
                    "material": 0
                },
                {
                    "attributes": {
                        "POSITION": 6,
                        "NORMAL": 7,
                        "TEXCOORD_0": 8,
                        "COLOR_0": 9,
                        "COLOR_1": 10
                    },
                    "indices": 11,
                    "material": 1
                }
            ]
        }
    ],
    "buffers": [
        {
            "uri": "birch_tree_3.bin",
            "byteLength": 233824
        }
    ],
    "bufferViews": [
        {
            "buffer": 0,
            "byteOffset": 0,
            "byteLength": 21636,
            "target": 34962
        },
        {
            "buffer": 0,
            "byteOffset": 21636,
            "byteLength": 21636,
            "target": 34962
        },
        {
            "buffer": 0,
            "byteOffset": 43272,
            "byteLength": 14424,
            "target": 34962
        },
        {
            "buffer": 0,
            "byteOffset": 57696,
            "byteLength": 28848,
            "target": 34962
        },
        {
            "buffer": 0,
            "byteOffset": 86544,
            "byteLength": 28848,
            "target": 34962
        },
        {
            "buffer": 0,
            "byteOffset": 115392,
            "byteLength": 31632,
            "target": 34963
        },
        {
            "buffer": 0,
            "byteOffset": 147024,
            "byteLength": 14880,
            "target": 34962
        },
        {
            "buffer": 0,
            "byteOffset": 161904,
            "byteLength": 14880,
            "target": 34962
        },
        {
            "buffer": 0,
            "byteOffset": 176784,
            "byteLength": 9920,
            "target": 34962
        },
        {
            "buffer": 0,
            "byteOffset": 186704,
            "byteLength": 19840,
            "target": 34962
        },
        {
            "buffer": 0,
            "byteOffset": 206544,
            "byteLength": 19840,
            "target": 34962
        },
        {
            "buffer": 0,
            "byteOffset": 226384,
            "byteLength": 7440,
            "target": 34963
        }
    ],
    "accessors": [
        {
            "bufferView": 0,
            "componentType": 5126,
            "count": 1803,
            "type": "VEC3",
            "min": [
                -1.4538573026657104,
                0.0,
                -1.4796907901763916
            ],
            "max": [
                1.4235929250717163,
                9.143494606018066,
                1.3737012147903442
            ]
        },
        {
            "bufferView": 1,
            "componentType": 5126,
            "count": 1803,
            "type": "VEC3",
            "min": [
                -1.0,
                -0.9987717866897583,
                -0.9998050332069397
            ],
            "max": [
                1.0,
                0.9987718462944031,
                0.9998050332069397
            ]
        },
        {
            "bufferView": 2,
            "componentType": 5126,
            "count": 1803,
            "type": "VEC2",
            "min": [
                0.0,
                0.0
            ],
            "max": [
                1.0,
                6.667154312133789
            ]
        },
        {
            "bufferView": 3,
            "componentType": 5126,
            "count": 1803,
            "type": "VEC4",
            "min": [
                1.0,
                1.0,
                1.0,
                0.0
            ],
            "max": [
                1.0,
                1.0,
                1.0,
                0.841587483882904
            ]
        },
        {
            "bufferView": 4,
            "componentType": 5126,
            "count": 1803,
            "type": "VEC4",
            "min": [
                1.0,
                1.0,
                1.0,
                1.0
            ],
            "max": [
                1.0,
                1.0,
                1.0,
                1.0
            ]
        },
        {
            "bufferView": 5,
            "componentType": 5125,
            "count": 7908,
            "type": "SCALAR",
            "min": [
                0.0
            ],
            "max": [
                1802.0
            ]
        },
        {
            "bufferView": 6,
            "componentType": 5126,
            "count": 1240,
            "type": "VEC3",
            "min": [
                -1.5837459564208984,
                1.3482552766799927,
                -2.1076419353485107
            ],
            "max": [
                1.5074331760406494,
                9.176957130432129,
                1.5924888849258423
            ]
        },
        {
            "bufferView": 7,
            "componentType": 5126,
            "count": 1240,
            "type": "VEC3",
            "min": [
                -0.9993712306022644,
                -0.6589333415031433,
                -0.9988411068916321
            ],
            "max": [
                0.9999247789382935,
                0.999271035194397,
                0.9997678995132446
            ]
        },
        {
            "bufferView": 8,
            "componentType": 5126,
            "count": 1240,
            "type": "VEC2",
            "min": [
                0.0,
                0.0
            ],
            "max": [
                1.0,
                1.0
            ]
        },
        {
            "bufferView": 9,
            "componentType": 5126,
            "count": 1240,
            "type": "VEC4",
            "min": [
                0.4034632444381714,
                0.47970232367515564,
                0.09446217119693756,
                0.4141860604286194
            ],
            "max": [
                0.4061816334724426,
                0.5141666531562805,
                0.12415317445993423,
                1.0
            ]
        },
        {
            "bufferView": 10,
            "componentType": 5126,
            "count": 1240,
            "type": "VEC4",
            "min": [
                0.41818052530288696,
                0.41818052530288696,
                0.41818052530288696,
                1.0
            ],
            "max": [
                1.0,
                1.0,
                1.0,
                1.0
            ]
        },
        {
            "bufferView": 11,
            "componentType": 5125,
            "count": 1860,
            "type": "SCALAR",
            "min": [
                0.0
            ],
            "max": [
                1239.0
            ]
        }
    ]
}