{
    "asset": {
        "version": "2.0",
        "generator": "Panda VegetationLab"
    },
    "scene": 0,
    "scenes": [
        {
            "nodes": [
                0
            ]
        }
    ],
    "nodes": [
        {
            "mesh": 0,
            "name": "romashki_0"
        }
    ],
    "materials": [
        {
            "name": "grass",
            "doubleSided": true,
            "alphaMode": "MASK",
            "alphaCutoff": 0.5,
            "pbrMetallicRoughness": {
                "baseColorTexture": {
                    "index": 0
                },
                "baseColorFactor": [
                    1.0,
                    1.0,
                    1.0,
                    1.0
                ],
                "metallicFactor": 0.0,
                "roughnessFactor": 1.0
            }
        }
    ],
    "textures": [
        {
            "source": 0
        }
    ],
    "images": [
        {
            "uri": "romashki_grass.png"
        }
    ],
    "meshes": [
        {
            "name": "romashki_0",
            "primitives": [
                {
                    "attributes": {
                        "POSITION": 0,
                        "NORMAL": 1,
                        "TEXCOORD_0": 2,
                        "COLOR_0": 3,
                        "COLOR_1": 4
                    },
                    "indices": 5,
                    "material": 0
                }
            ]
        }
    ],
    "buffers": [
        {
            "uri": "romashki_0.bin",
            "byteLength": 840
        }
    ],
    "bufferViews": [
        {
            "buffer": 0,
            "byteOffset": 0,
            "byteLength": 144,
            "target": 34962
        },
        {
            "buffer": 0,
            "byteOffset": 144,
            "byteLength": 144,
            "target": 34962
        },
        {
            "buffer": 0,
            "byteOffset": 288,
            "byteLength": 96,
            "target": 34962
        },
        {
            "buffer": 0,
            "byteOffset": 384,
            "byteLength": 192,
            "target": 34962
        },
        {
            "buffer": 0,
            "byteOffset": 576,
            "byteLength": 192,
            "target": 34962
        },
        {
            "buffer": 0,
            "byteOffset": 768,
            "byteLength": 72,
            "target": 34963
        }
    ],
    "accessors": [
        {
            "bufferView": 0,
            "componentType": 5126,
            "count": 12,
            "type": "VEC3",
            "min": [
                -0.7533021569252014,
                -2.7939677238464355e-9,
                -0.6874130964279175
            ],
            "max": [
                0.746089518070221,
                0.663705587387085,
                0.7067456245422363
            ]
        },
        {
            "bufferView": 1,
            "componentType": 5126,
            "count": 12,
            "type": "VEC3",
            "min": [
                0.0,
                1.0,
                0.0
            ],
            "max": [
                0.0,
                1.0,
                0.0
            ]
        },
        {
            "bufferView": 2,
            "componentType": 5126,
            "count": 12,
            "type": "VEC2",
            "min": [
                0.0,
                0.0
            ],
            "max": [
                1.0,
                1.0
            ]
        },
        {
            "bufferView": 3,
            "componentType": 5126,
            "count": 12,
            "type": "VEC4",
            "min": [
                0.8259375095367432,
                0.8259375095367432,
                0.8259375095367432,
                0.0
            ],
            "max": [
                1.0,
                1.0,
                1.0,
                1.0
            ]
        },
        {
            "bufferView": 4,
            "componentType": 5126,
            "count": 12,
            "type": "VEC4",
            "min": [
                1.0,
                1.0,
                1.0,
                1.0
            ],
            "max": [
                1.0,
                1.0,
                1.0,
                1.0
            ]
        },
        {
            "bufferView": 5,
            "componentType": 5125,
            "count": 18,
            "type": "SCALAR",
            "min": [
                0.0
            ],
            "max": [
                11.0
            ]
        }
    ]
}