{
  "asset": {
    "generator": "glTF-Transform v4.2.1",
    "version": "2.0"
  },
  "accessors": [
    {
      "type": "VEC3",
      "componentType": 5126,
      "count": 3896,
      "max": [
        26.16510772705078,
        91.43427276611328,
        26.82985496520996
      ],
      "min": [
        -37.29076385498047,
        0,
        -34.65707015991211
      ],
      "bufferView": 0,
      "byteOffset": 0
    },
    {
      "type": "VEC3",
      "componentType": 5126,
      "count": 3896,
      "bufferView": 0,
      "byteOffset": 12
    },
    {
      "type": "VEC2",
      "componentType": 5126,
      "count": 3896,
      "bufferView": 0,
      "byteOffset": 24
    },
    {
      "type": "SCALAR",
      "componentType": 5123,
      "count": 12384,
      "bufferView": 1,
      "byteOffset": 0
    },
    {
      "type": "SCALAR",
      "componentType": 5123,
      "count": 14520,
      "bufferView": 1,
      "byteOffset": 24768
    },
    {
      "type": "VEC3",
      "componentType": 5126,
      "count": 9680,
      "max": [
        31.480684280395508,
        101.861083984375,
        33.832672119140625
      ],
      "min": [
        -42.38475799560547,
        21.366050720214844,
        -41.921226501464844
      ],
      "bufferView": 2,
      "byteOffset": 0
    },
    {
      "type": "VEC3",
      "componentType": 5126,
      "count": 9680,
      "bufferView": 2,
      "byteOffset": 12
    },
    {
      "type": "VEC2",
      "componentType": 5126,
      "count": 9680,
      "bufferView": 2,
      "byteOffset": 24
    }
  ],
  "bufferViews": [
    {
      "buffer": 0,
      "byteOffset": 0,
      "byteLength": 124672,
      "byteStride": 32,
      "target": 34962
    },
    {
      "buffer": 0,
      "byteOffset": 124672,
      "byteLength": 53808,
      "target": 34963
    },
    {
      "buffer": 0,
      "byteOffset": 178480,
      "byteLength": 309760,
      "byteStride": 32,
      "target": 34962
    }
  ],
  "samplers": [
    {
      "magFilter": 9729,
      "minFilter": 9987,
      "wrapS": 10497,
      "wrapT": 10497
    },
    {
      "magFilter": 9729,
      "minFilter": 9987,
      "wrapS": 33071,
      "wrapT": 33071
    }
  ],
  "textures": [
    {
      "source": 1,
      "sampler": 0
    },
    {
      "source": 2,
      "sampler": 0
    },
    {
      "source": 0,
      "sampler": 0
    },
    {
      "source": 3,
      "sampler": 1
    }
  ],
  "images": [
    {
      "mimeType": "image/png",
      "uri": "metallicRoughness_1.png"
    },
    {
      "mimeType": "image/png",
      "uri": "baseColor_1.png"
    },
    {
      "mimeType": "image/png",
      "uri": "normal_1.png"
    },
    {
      "mimeType": "image/png",
      "uri": "baseColor_2.png"
    }
  ],
  "buffers": [
    {
      "uri": "buffer.bin",
      "byteLength": 488240
    }
  ],
  "materials": [
    {
      "name": "branches",
      "pbrMetallicRoughness": {
        "baseColorFactor": [
          0.6172065624120635,
          0.6038273388475408,
          0.514917665367466,
          1
        ],
        "metallicFactor": 0,
        "baseColorTexture": {
          "index": 0,
          "extensions": {
            "KHR_texture_transform": {
              "scale": [
                1,
                0.2
              ]
            }
          }
        },
        "metallicRoughnessTexture": {
          "index": 2,
          "extensions": {
            "KHR_texture_transform": {
              "scale": [
                1,
                0.2
              ]
            }
          }
        }
      },
      "normalTexture": {
        "index": 1,
        "extensions": {
          "KHR_texture_transform": {
            "scale": [
              1,
              0.2
            ]
          }
        }
      }
    },
    {
      "name": "leaves",
      "alphaMode": "MASK",
      "alphaCutoff": 0.5,
      "doubleSided": true,
      "pbrMetallicRoughness": {
        "metallicFactor": 0,
        "baseColorTexture": {
          "index": 3
        }
      }
    }
  ],
  "meshes": [
    {
      "primitives": [
        {
          "attributes": {
            "POSITION": 0,
            "NORMAL": 1,
            "TEXCOORD_0": 2
          },
          "mode": 4,
          "material": 0,
          "indices": 3
        }
      ]
    },
    {
      "primitives": [
        {
          "attributes": {
            "POSITION": 5,
            "NORMAL": 6,
            "TEXCOORD_0": 7
          },
          "mode": 4,
          "material": 1,
          "indices": 4
        }
      ]
    }
  ],
  "nodes": [
    {
      "name": "AuxScene",
      "children": [
        1
      ]
    },
    {
      "name": "Tree_LOD1",
      "extras": {
        "name": "Tree_LOD1"
      },
      "children": [
        2,
        3
      ]
    },
    {
      "name": "Branches_LOD1",
      "extras": {
        "name": "Branches_LOD1"
      },
      "mesh": 0
    },
    {
      "name": "Leaves_LOD1",
      "extras": {
        "name": "Leaves_LOD1"
      },
      "mesh": 1
    }
  ],
  "scenes": [
    {
      "name": "AuxScene",
      "nodes": [
        0
      ]
    }
  ],
  "scene": 0,
  "extensionsUsed": [
    "KHR_texture_transform"
  ]
}